<?xml version="1.0" encoding="UTF-8" standalone="no"?>
<svg
   height="24px"
   viewBox="0 -960 960 960"
   width="24px"
   fill="#5f6368"
   version="1.1"
   id="svg1"
   sodipodi:docname="2.svg"
   inkscape:version="1.3.2 (091e20ef0f, 2023-11-25)"
   xmlns:inkscape="http://www.inkscape.org/namespaces/inkscape"
   xmlns:sodipodi="http://sodipodi.sourceforge.net/DTD/sodipodi-0.dtd"
   xmlns="http://www.w3.org/2000/svg"
   xmlns:svg="http://www.w3.org/2000/svg">
  <defs
     id="defs1" />
  <sodipodi:namedview
     id="namedview1"
     pagecolor="#ffffff"
     bordercolor="#000000"
     borderopacity="0.25"
     inkscape:showpageshadow="2"
     inkscape:pageopacity="0.0"
     inkscape:pagecheckerboard="0"
     inkscape:deskcolor="#d1d1d1"
     inkscape:zoom="38.166667"
     inkscape:cx="11.973799"
     inkscape:cy="12.052402"
     inkscape:window-width="2048"
     inkscape:window-height="1124"
     inkscape:window-x="0"
     inkscape:window-y="0"
     inkscape:window-maximized="1"
     inkscape:current-layer="svg1" />
  <path
     style="fill:#55d400;stroke-width:1.57205"
     d="m 301.98081,-267.64145 c 0.225,-47.3388 1.03848,-106.9395 1.8081,-132.4461 1.57644,-52.24614 2.47824,-57.0306 14.66695,-77.81658 7.64287,-13.03374 29.71312,-35.32596 42.57475,-43.00284 10.96056,-6.54228 25.27518,-12.39606 35.18844,-14.38998 4.1448,-0.8334 31.9425,-1.902 61.77222,-2.3742 29.82966,-0.474 60.77946,-1.2552 68.77728,-1.7406 l 14.54148,-0.882 v -60.37716 -60.37731 h -120.26202 -120.262 v -58.16594 -58.16593 l 97.07422,0.165 c 53.39082,0.0906 114.05244,0.62136 134.8035,1.17906 l 37.72926,1.01394 14.03586,6.74333 c 7.71972,3.70884 18.4317,9.88012 23.8044,13.71398 24.10884,17.20373 42.35736,45.82383 46.20954,72.47294 2.0502,14.18501 2.0748,152.39451 0.029,165.67239 -1.0416,6.76116 -4.3152,15.80304 -9.67584,26.7249 -7.09038,14.44644 -9.88578,18.27234 -22.39806,30.65502 -20.86386,20.64756 -39.10908,30.41658 -63.0093,33.73686 -9.483,1.3176 -89.93274,4.092 -137.16156,4.7304 l -3.537,0.0478 v 60.52404 60.52398 h 120.26202 120.26196 v 58.95198 58.95198 l -178.82094,6.6e-4 -178.82096,6.6e-4 z"
     id="path2" />
</svg>
