<?xml version="1.0" encoding="UTF-8" standalone="no"?>
<svg
   height="24px"
   viewBox="0 -960 960 960"
   width="24px"
   fill="#5f6368"
   version="1.1"
   id="svg1"
   sodipodi:docname="8.svg"
   inkscape:version="1.3.2 (091e20ef0f, 2023-11-25)"
   xmlns:inkscape="http://www.inkscape.org/namespaces/inkscape"
   xmlns:sodipodi="http://sodipodi.sourceforge.net/DTD/sodipodi-0.dtd"
   xmlns="http://www.w3.org/2000/svg"
   xmlns:svg="http://www.w3.org/2000/svg">
  <defs
     id="defs1" />
  <sodipodi:namedview
     id="namedview1"
     pagecolor="#ffffff"
     bordercolor="#000000"
     borderopacity="0.25"
     inkscape:showpageshadow="2"
     inkscape:pageopacity="0.0"
     inkscape:pagecheckerboard="0"
     inkscape:deskcolor="#d1d1d1"
     inkscape:zoom="38.166667"
     inkscape:cx="12"
     inkscape:cy="12.026201"
     inkscape:window-width="2048"
     inkscape:window-height="1124"
     inkscape:window-x="0"
     inkscape:window-y="0"
     inkscape:window-maximized="1"
     inkscape:current-layer="svg1" />
  <path
     d="m 420,-180 h 120 q 49.5,0 84.75,-35.25 Q 660,-250.5 660,-300 v -90 q 0,-37.5 -26.25,-63.75 Q 607.5,-480 570,-480 q 37.5,0 63.75,-26.25 Q 660,-532.5 660,-570 v -90 q 0,-49.5 -35.25,-84.75 Q 589.5,-780 540,-780 H 420 q -49.5,0 -84.75,35.25 Q 300,-709.5 300,-660 v 90 q 0,37.5 26.25,63.75 26.25,26.25 63.75,26.25 -37.5,0 -63.75,26.25 Q 300,-427.5 300,-390 v 90 q 0,49.5 35.25,84.75 Q 370.5,-180 420,-180 Z"
     id="path4"
     style="fill:#999999;stroke-width:1.5" />
  <path
     d="m 420,-300 v -120 h 120 v 120 z"
     id="path6"
     inkscape:label="path6"
     style="fill:#ffffff;stroke-width:1.5" />
  <path
     d="m 420,-660 h 120 v 120 H 420 Z"
     id="path5"
     style="fill:#ffffff;stroke-width:1.5" />
</svg>
