<?xml version="1.0" encoding="UTF-8" standalone="no"?>
<svg
   height="24px"
   viewBox="0 -960 960 960"
   width="24px"
   fill="#000000"
   version="1.1"
   id="svg1"
   sodipodi:docname="mine.svg"
   inkscape:version="1.3.2 (091e20ef0f, 2023-11-25)"
   xmlns:inkscape="http://www.inkscape.org/namespaces/inkscape"
   xmlns:sodipodi="http://sodipodi.sourceforge.net/DTD/sodipodi-0.dtd"
   xmlns="http://www.w3.org/2000/svg"
   xmlns:svg="http://www.w3.org/2000/svg">
  <defs
     id="defs1" />
  <sodipodi:namedview
     id="namedview1"
     pagecolor="#ffffff"
     bordercolor="#000000"
     borderopacity="0.25"
     inkscape:showpageshadow="2"
     inkscape:pageopacity="0.0"
     inkscape:pagecheckerboard="0"
     inkscape:deskcolor="#d1d1d1"
     inkscape:zoom="38.166667"
     inkscape:cx="12"
     inkscape:cy="12"
     inkscape:window-width="2048"
     inkscape:window-height="1124"
     inkscape:window-x="0"
     inkscape:window-y="0"
     inkscape:window-maximized="1"
     inkscape:current-layer="svg1" />
  <path
     d="m 373.4,-138 q -100,0 -170,-70.8 -70,-70.8 -70,-170.8 0,-100 69.2,-169.2 69.2,-69.2 169.2,-69.2 h 10.4 l 21.6,-37.6 q 9.6,-17.6 28.8,-22.8 19.2,-5.2 36.8,5.2 l 24,13.6 4,-6.4 q 18.4,-34.4 57.6,-44.8 39.2,-10.4 73.6,9.6 l 28,16 -32,55.2 -28,-16 q -11.2,-6.4 -24.4,-2.8 -13.2,3.6 -19.6,14.8 l -4,6.4 32,18.4 q 16.8,9.6 22,28.8 5.2,19.2 -4.4,36 l -21.6,38.4 q 18.4,28.8 27.6,61.2 9.2,32.4 9.2,66.8 0,100 -70,170 -70,70 -170,70 z m 0,-64 q 72.8,0 124.4,-51.6 51.6,-51.6 51.6,-124.4 0,-24.8 -6.8,-48.8 -6.8,-24 -20.4,-45.6 l -20.8,-32.8 33.6,-57.6 -83.2,-48 -33.6,57.6 H 383 q -75.2,0 -130.8,48 -55.6,48 -55.6,125.6 0,73.6 51.6,125.6 51.6,52 125.2,52 z m 363.2,-384 v -64 h 96 v 64 z m -176,-176 v -96 h 64 v 96 z m 156,64.8 -44.8,-44.8 68,-68 44.8,44.8 z M 373.4,-378 Z"
     id="path1"
     style="stroke-width:0.8" />
</svg>
