<?xml version="1.0" encoding="UTF-8" standalone="no"?>
<svg
   height="24px"
   viewBox="0 -960 960 960"
   width="24px"
   fill="#000000"
   version="1.1"
   id="svg1"
   sodipodi:docname="question.svg"
   inkscape:version="1.3.2 (091e20ef0f, 2023-11-25)"
   xmlns:inkscape="http://www.inkscape.org/namespaces/inkscape"
   xmlns:sodipodi="http://sodipodi.sourceforge.net/DTD/sodipodi-0.dtd"
   xmlns="http://www.w3.org/2000/svg"
   xmlns:svg="http://www.w3.org/2000/svg">
  <defs
     id="defs1" />
  <sodipodi:namedview
     id="namedview1"
     pagecolor="#ffffff"
     bordercolor="#000000"
     borderopacity="0.25"
     inkscape:showpageshadow="2"
     inkscape:pageopacity="0.0"
     inkscape:pagecheckerboard="0"
     inkscape:deskcolor="#d1d1d1"
     inkscape:zoom="38.166667"
     inkscape:cx="12"
     inkscape:cy="12.078603"
     inkscape:window-width="2048"
     inkscape:window-height="1124"
     inkscape:window-x="0"
     inkscape:window-y="0"
     inkscape:window-maximized="1"
     inkscape:current-layer="svg1" />
  <path
     d="m 422.17027,-382.17945 q 0,-60.67405 10.86141,-87.26576 10.8614,-26.59172 46.06734,-58.05234 30.71155,-26.96624 46.81639,-46.81639 16.10484,-19.85016 16.10484,-45.31827 0,-30.71156 -20.59921,-50.93625 -20.59922,-20.22468 -57.30327,-20.22468 -38.20218,0 -58.05234,23.22094 -19.85015,23.22092 -28.08983,47.19092 l -77.15343,-32.95874 q 15.73031,-47.93999 57.6778,-83.14592 41.9475,-35.20593 105.6178,-35.20593 78.65154,0 120.97356,43.82014 42.32203,43.82016 42.32203,105.24326 0,37.45312 -16.10485,64.04483 -16.10483,26.59172 -50.5617,60.29952 -36.70405,35.20594 -44.56921,53.55796 -7.86515,18.35203 -7.86515,62.54671 z m 41.9475,179.77496 q -24.71907,0 -42.32202,-17.60296 -17.60297,-17.60297 -17.60297,-42.32202 0,-24.71906 17.60297,-42.32203 17.60295,-17.60296 42.32202,-17.60296 24.71906,0 42.32202,17.60296 17.60297,17.60297 17.60297,42.32203 0,24.71905 -17.60297,42.32202 -17.60296,17.60296 -42.32202,17.60296 z"
     id="path1"
     style="stroke-width:0.749063" />
</svg>
