<?xml version="1.0" encoding="UTF-8" standalone="no"?>
<svg
   height="24px"
   viewBox="0 -960 960 960"
   width="24px"
   fill="#000000"
   version="1.1"
   id="svg1"
   sodipodi:docname="wrong_mine.svg"
   xml:space="preserve"
   inkscape:version="1.3.2 (091e20ef0f, 2023-11-25)"
   xmlns:inkscape="http://www.inkscape.org/namespaces/inkscape"
   xmlns:sodipodi="http://sodipodi.sourceforge.net/DTD/sodipodi-0.dtd"
   xmlns="http://www.w3.org/2000/svg"
   xmlns:svg="http://www.w3.org/2000/svg"><defs
     id="defs1" /><sodipodi:namedview
     id="namedview1"
     pagecolor="#ffffff"
     bordercolor="#000000"
     borderopacity="0.25"
     inkscape:showpageshadow="2"
     inkscape:pageopacity="0.0"
     inkscape:pagecheckerboard="0"
     inkscape:deskcolor="#d1d1d1"
     inkscape:zoom="13.493954"
     inkscape:cx="17.600474"
     inkscape:cy="12.005376"
     inkscape:window-width="2048"
     inkscape:window-height="1124"
     inkscape:window-x="0"
     inkscape:window-y="0"
     inkscape:window-maximized="1"
     inkscape:current-layer="svg1" /><path
     d="M346-48q-125 0-212.5-88.5T46-350q0-125 86.5-211.5T344-648h13l27-47q12-22 36-28.5t46 6.5l30 17 5-8q23-43 72-56t92 12l35 20-40 69-35-20q-14-8-30.5-3.5T570-668l-5 8 40 23q21 12 27.5 36t-5.5 45l-27 48q23 36 34.5 76.5T646-348q0 125-87.5 212.5T346-48Zm0-80q91 0 155.5-64.5T566-348q0-31-8.5-61T532-466l-26-41 42-72-104-60-42 72h-44q-94 0-163.5 60T125-350q0 92 64.5 157T346-128Zm454-480v-80h120v80H800ZM580-828v-120h80v120h-80Zm195 81-56-56 85-85 56 56-85 85ZM346-348Z"
     id="path1" /><g
     style="fill:#ea3323"
     id="g1"
     transform="matrix(1.5099011,0,0,1.5099011,-247.41223,242.6169)"><path
       d="m 256,-200 -56,-56 224,-224 -224,-224 56,-56 224,224 224,-224 56,56 -224,224 224,224 -56,56 -224,-224 z"
       id="path1-5" /></g></svg>
